<svg xmlns="http://www.w3.org/2000/svg" viewBox="0 0 272.53 169.3">
  <path d="M16.98 155.93c-.58 0-1.17-.1-1.75-.3-2.71-.96-4.13-3.95-3.17-6.66C29.8 99.05 46.66 56.92 63.6 20.15c1.21-2.62 4.3-3.76 6.92-2.55 2.62 1.21 3.76 4.3 2.55 6.92-16.81 36.48-33.55 78.33-51.17 127.94-.76 2.14-2.77 3.47-4.91 3.47Z"/>
  <path d="M80.1 169.3c-.56 0-1.12-.09-1.68-.28-2.73-.93-4.19-3.89-3.26-6.61C98.58 93.39 121.3 36.71 139.14 2.79c1.34-2.55 4.49-3.53 7.04-2.19 2.55 1.34 3.53 4.49 2.19 7.04-17.59 33.45-40.08 89.6-63.33 158.11-.74 2.17-2.77 3.54-4.94 3.54Z"/>
  <path d="M3.88 97.09c-1.69 0-3.24-1.11-3.73-2.82-.58-2.06.61-4.2 2.67-4.79 42.31-12 90.21-18.19 131.42-16.99 2.14.06 3.83 1.85 3.76 3.99-.06 2.14-1.85 3.83-3.99 3.76-40.45-1.18-87.5 4.91-129.08 16.7-.35.1-.71.15-1.06.15Z"/>
  <path d="M157 128.11c-3.73 0-5.95-1.51-7.21-2.91-2.39-2.66-2.94-6.59-1.62-11.68 2.85-10.82 9.49-26.94 16.16-39.21 1.13-2.08 3.73-2.85 5.8-1.72 2.08 1.13 2.84 3.73 1.72 5.8-6.38 11.74-12.71 27.07-15.4 37.29-.64 2.48-.39 3.5-.3 3.76.18.06.74.2 1.93.02 9.18-1.46 23.22-10.25 33.39-20.92 1.63-1.71 4.34-1.77 6.05-.14 1.71 1.63 1.77 4.34.14 6.05-11.7 12.27-27.08 21.71-38.27 23.47-.01 0-.02 0-.03 0-.85.13-1.63.18-2.36.18Z"/>
  <path d="M225.32 106.45c-.74 0-1.49-.16-2.21-.49-2.61-1.22-3.73-4.33-2.51-6.94 13.91-29.69 28.79-55.51 41.93-78.29l.27-.46c1.44-2.5 4.63-3.35 7.12-1.91 2.5 1.44 3.35 4.63 1.91 7.12l-.27.46c-13.03 22.6-27.8 48.22-41.52 77.51-.89 1.89-2.77 3-4.73 3Z"/>
  <ellipse cx="177.99" cy="48.54" rx="5.88" ry="7.22"/>
  <ellipse cx="216.77" cy="130.12" rx="6.95" ry="7.76"/>
</svg>
